# Blender v2.92.0 OBJ File: ''
# www.blender.org
mtllib building11.mtl
o building11
v -5.500000 31.999998 12.000005
v -5.500000 0.000002 -12.000000
v -5.500000 -0.000002 12.000000
v -5.500000 32.000004 -11.999995
v -4.500000 33.000000 6.000005
v -4.500000 32.000000 2.000005
v -4.500000 31.999998 6.000005
v -4.500000 33.000000 2.000005
v -4.500000 33.000000 -0.999995
v -4.500000 32.000000 -4.999995
v -4.500000 32.000000 -0.999995
v -4.500000 33.000000 -4.999995
v -4.500000 34.000000 -7.999994
v -4.500000 32.000000 -10.999995
v -4.500000 32.000000 -7.999995
v -4.500000 34.000000 -10.999994
v -1.500000 9.999998 12.000002
v -1.500000 6.999998 11.000001
v -1.500000 6.999998 12.000001
v -1.500000 9.999998 11.000002
v -1.500000 14.999998 12.000003
v -1.500000 11.999998 11.000002
v -1.500000 11.999998 12.000002
v -1.500000 14.999998 11.000003
v -1.500000 19.999998 12.000003
v -1.500000 16.999998 11.000003
v -1.500000 16.999998 12.000003
v -1.500000 19.999998 11.000003
v -1.500000 24.999998 12.000004
v -1.500000 21.999998 11.000004
v -1.500000 21.999998 12.000004
v -1.500000 24.999998 11.000004
v -1.500000 29.999998 12.000005
v -1.500000 26.999998 11.000005
v -1.500000 26.999998 12.000005
v -1.500000 29.999998 11.000005
v 0.500000 36.000000 -7.999994
v 0.500000 34.000000 -10.999994
v 0.500000 34.000000 -7.999994
v 0.500000 36.000000 -10.999994
v 2.500000 5.999998 12.000001
v 2.500000 1.999998 11.000000
v 2.500000 1.999998 12.000000
v 2.500000 5.999998 11.000001
v 3.500000 9.999998 12.000002
v 3.500000 6.999998 11.000001
v 3.500000 6.999998 12.000001
v 3.500000 9.999998 11.000002
v 3.500000 14.999998 12.000003
v 3.500000 11.999998 11.000002
v 3.500000 11.999998 12.000002
v 3.500000 14.999998 11.000003
v 3.500000 19.999998 12.000003
v 3.500000 16.999998 11.000003
v 3.500000 16.999998 12.000003
v 3.500000 19.999998 11.000003
v 3.500000 24.999998 12.000004
v 3.500000 21.999998 11.000004
v 3.500000 21.999998 12.000004
v 3.500000 24.999998 11.000004
v 3.500000 29.999998 12.000005
v 3.500000 26.999998 11.000005
v 3.500000 26.999998 12.000005
v 3.500000 29.999998 11.000005
v -3.500000 6.999998 12.000001
v -3.500000 6.999998 11.000001
v -3.500000 9.999998 12.000002
v -3.500000 9.999998 11.000002
v -3.500000 11.999998 12.000002
v -3.500000 11.999998 11.000002
v -3.500000 14.999998 12.000003
v -3.500000 14.999998 11.000003
v -3.500000 16.999998 12.000003
v -3.500000 16.999998 11.000003
v -3.500000 19.999998 12.000003
v -3.500000 19.999998 11.000003
v -3.500000 21.999998 12.000004
v -3.500000 21.999998 11.000004
v -3.500000 24.999998 12.000004
v -3.500000 24.999998 11.000004
v -3.500000 26.999998 12.000005
v -3.500000 26.999998 11.000005
v -3.500000 29.999998 12.000005
v -3.500000 29.999998 11.000005
v -2.500000 1.999998 12.000000
v -2.500000 1.999998 11.000000
v -2.500000 5.999998 12.000001
v -2.500000 5.999998 11.000001
v -2.500000 31.999998 6.000005
v -2.500000 32.000000 2.000005
v -2.500000 33.000000 6.000005
v -2.500000 33.000000 2.000005
v -2.500000 32.000000 -0.999995
v -2.500000 32.000000 -4.999995
v -2.500000 33.000000 -0.999995
v -2.500000 33.000000 -4.999995
v 1.500000 6.999998 12.000001
v 1.500000 6.999998 11.000001
v 1.500000 9.999998 12.000002
v 1.500000 9.999998 11.000002
v 1.500000 11.999998 12.000002
v 1.500000 11.999998 11.000002
v 1.500000 14.999998 12.000003
v 1.500000 14.999998 11.000003
v 1.500000 16.999998 12.000003
v 1.500000 16.999998 11.000003
v 1.500000 19.999998 12.000003
v 1.500000 19.999998 11.000003
v 1.500000 21.999998 12.000004
v 1.500000 21.999998 11.000004
v 1.500000 24.999998 12.000004
v 1.500000 24.999998 11.000004
v 1.500000 26.999998 12.000005
v 1.500000 26.999998 11.000005
v 1.500000 29.999998 12.000005
v 1.500000 29.999998 11.000005
v 4.500000 32.000000 -7.999995
v 4.500000 32.000000 -10.999995
v 4.500000 36.000000 -7.999994
v 4.500000 36.000000 -10.999994
v 5.500000 -0.000002 12.000000
v 5.500000 0.000002 -12.000000
v 5.500000 31.999998 12.000005
v 5.500000 32.000004 -11.999995
v -3.500000 6.999998 12.000001
v -5.500000 31.999998 12.000005
v -5.500000 -0.000002 12.000000
v -3.500000 9.999998 12.000002
v -3.500000 11.999998 12.000002
v -3.500000 14.999998 12.000003
v -3.500000 16.999998 12.000003
v -3.500000 19.999998 12.000003
v -3.500000 21.999998 12.000004
v -3.500000 24.999998 12.000004
v -3.500000 26.999998 12.000005
v -3.500000 29.999998 12.000005
v -2.500000 0.999998 12.000000
v -2.500000 1.999998 12.000000
v -2.500000 5.999998 12.000001
v -1.500000 6.999998 12.000001
v -1.500000 9.999998 12.000002
v -1.500000 11.999998 12.000002
v -1.500000 14.999998 12.000003
v -1.500000 16.999998 12.000003
v -1.500000 19.999998 12.000003
v -1.500000 21.999998 12.000004
v -1.500000 24.999998 12.000004
v -1.500000 26.999998 12.000005
v -1.500000 29.999998 12.000005
v -0.500000 6.999998 12.000001
v -0.500000 30.999998 12.000005
v 0.500000 6.999998 12.000001
v 0.500000 30.999998 12.000005
v 1.500000 6.999998 12.000001
v 1.500000 9.999998 12.000002
v 1.500000 11.999998 12.000002
v 1.500000 14.999998 12.000003
v 1.500000 16.999998 12.000003
v 1.500000 19.999998 12.000003
v 1.500000 21.999998 12.000004
v 1.500000 24.999998 12.000004
v 1.500000 26.999998 12.000005
v 1.500000 29.999998 12.000005
v 2.500000 0.999998 12.000000
v 2.500000 1.999998 12.000000
v 2.500000 5.999998 12.000001
v 3.500000 6.999998 12.000001
v 3.500000 9.999998 12.000002
v 3.500000 11.999998 12.000002
v 3.500000 14.999998 12.000003
v 3.500000 16.999998 12.000003
v 3.500000 19.999998 12.000003
v 3.500000 21.999998 12.000004
v 3.500000 24.999998 12.000004
v 3.500000 26.999998 12.000005
v 3.500000 29.999998 12.000005
v 5.500000 -0.000002 12.000000
v 5.500000 31.999998 12.000005
v -2.500000 31.999998 6.000005
v -4.500000 33.000000 6.000005
v -4.500000 31.999998 6.000005
v -2.500000 33.000000 6.000005
v -2.500000 32.000000 -0.999995
v -4.500000 33.000000 -0.999995
v -4.500000 32.000000 -0.999995
v -2.500000 33.000000 -0.999995
v 0.500000 34.000000 -7.999994
v -4.500000 34.000000 -7.999994
v -4.500000 32.000000 -7.999995
v 4.500000 32.000000 -7.999995
v 0.500000 36.000000 -7.999994
v 4.500000 36.000000 -7.999994
v -4.500000 32.000000 2.000005
v -4.500000 33.000000 2.000005
v -2.500000 32.000000 2.000005
v -2.500000 33.000000 2.000005
v -4.500000 32.000000 -4.999995
v -4.500000 33.000000 -4.999995
v -2.500000 32.000000 -4.999995
v -2.500000 33.000000 -4.999995
v -4.500000 32.000000 -10.999995
v -4.500000 34.000000 -10.999994
v 0.500000 34.000000 -10.999994
v 4.500000 32.000000 -10.999995
v 0.500000 36.000000 -10.999994
v 4.500000 36.000000 -10.999994
v -5.500000 0.000002 -12.000000
v -5.500000 32.000004 -11.999995
v 5.500000 0.000002 -12.000000
v 5.500000 32.000004 -11.999995
v -2.500000 5.999998 11.000001
v 2.500000 5.999998 12.000001
v -2.500000 5.999998 12.000001
v 2.500000 5.999998 11.000001
v -3.500000 9.999998 11.000002
v -1.500000 9.999998 12.000002
v -3.500000 9.999998 12.000002
v -1.500000 9.999998 11.000002
v 1.500000 9.999998 11.000002
v 3.500000 9.999998 12.000002
v 1.500000 9.999998 12.000002
v 3.500000 9.999998 11.000002
v -3.500000 14.999998 11.000003
v -1.500000 14.999998 12.000003
v -3.500000 14.999998 12.000003
v -1.500000 14.999998 11.000003
v 1.500000 14.999998 11.000003
v 3.500000 14.999998 12.000003
v 1.500000 14.999998 12.000003
v 3.500000 14.999998 11.000003
v -3.500000 19.999998 11.000003
v -1.500000 19.999998 12.000003
v -3.500000 19.999998 12.000003
v -1.500000 19.999998 11.000003
v 1.500000 19.999998 11.000003
v 3.500000 19.999998 12.000003
v 1.500000 19.999998 12.000003
v 3.500000 19.999998 11.000003
v -3.500000 24.999998 11.000004
v -1.500000 24.999998 12.000004
v -3.500000 24.999998 12.000004
v -1.500000 24.999998 11.000004
v 1.500000 24.999998 11.000004
v 3.500000 24.999998 12.000004
v 1.500000 24.999998 12.000004
v 3.500000 24.999998 11.000004
v -3.500000 29.999998 11.000005
v -1.500000 29.999998 12.000005
v -3.500000 29.999998 12.000005
v -1.500000 29.999998 11.000005
v 1.500000 29.999998 11.000005
v 3.500000 29.999998 12.000005
v 1.500000 29.999998 12.000005
v 3.500000 29.999998 11.000005
v -2.500000 1.999998 12.000000
v 2.500000 1.999998 12.000000
v -2.500000 1.999998 11.000000
v 2.500000 1.999998 11.000000
v -3.500000 6.999998 12.000001
v -1.500000 6.999998 12.000001
v -3.500000 6.999998 11.000001
v -1.500000 6.999998 11.000001
v 1.500000 6.999998 12.000001
v 3.500000 6.999998 12.000001
v 1.500000 6.999998 11.000001
v 3.500000 6.999998 11.000001
v -3.500000 11.999998 12.000002
v -1.500000 11.999998 12.000002
v -3.500000 11.999998 11.000002
v -1.500000 11.999998 11.000002
v 1.500000 11.999998 12.000002
v 3.500000 11.999998 12.000002
v 1.500000 11.999998 11.000002
v 3.500000 11.999998 11.000002
v -3.500000 16.999998 12.000003
v -1.500000 16.999998 12.000003
v -3.500000 16.999998 11.000003
v -1.500000 16.999998 11.000003
v 1.500000 16.999998 12.000003
v 3.500000 16.999998 12.000003
v 1.500000 16.999998 11.000003
v 3.500000 16.999998 11.000003
v -3.500000 21.999998 12.000004
v -1.500000 21.999998 12.000004
v -3.500000 21.999998 11.000004
v -1.500000 21.999998 11.000004
v 1.500000 21.999998 12.000004
v 3.500000 21.999998 12.000004
v 1.500000 21.999998 11.000004
v 3.500000 21.999998 11.000004
v -3.500000 26.999998 12.000005
v -1.500000 26.999998 12.000005
v -3.500000 26.999998 11.000005
v -1.500000 26.999998 11.000005
v 1.500000 26.999998 12.000005
v 3.500000 26.999998 12.000005
v 1.500000 26.999998 11.000005
v 3.500000 26.999998 11.000005
v -5.500000 31.999998 12.000005
v 5.500000 31.999998 12.000005
v -4.500000 31.999998 6.000005
v -2.500000 31.999998 6.000005
v -4.500000 32.000000 2.000005
v -2.500000 32.000000 2.000005
v -4.500000 32.000000 -0.999995
v -2.500000 32.000000 -0.999995
v -4.500000 32.000000 -4.999995
v -2.500000 32.000000 -4.999995
v -4.500000 32.000000 -7.999995
v 4.500000 32.000000 -7.999995
v -4.500000 32.000000 -10.999995
v 4.500000 32.000000 -10.999995
v -5.500000 32.000004 -11.999995
v 5.500000 32.000004 -11.999995
v -4.500000 33.000000 6.000005
v -2.500000 33.000000 6.000005
v -4.500000 33.000000 2.000005
v -2.500000 33.000000 2.000005
v -4.500000 33.000000 -0.999995
v -2.500000 33.000000 -0.999995
v -4.500000 33.000000 -4.999995
v -2.500000 33.000000 -4.999995
v -4.500000 34.000000 -7.999994
v 0.500000 34.000000 -7.999994
v -4.500000 34.000000 -10.999994
v 0.500000 34.000000 -10.999994
v 0.500000 36.000000 -7.999994
v 4.500000 36.000000 -7.999994
v 0.500000 36.000000 -10.999994
v 4.500000 36.000000 -10.999994
vt 0.810547 0.500000
vt 0.810547 0.500000
vt 0.810547 0.500000
vt 0.810547 0.500000
vt 0.841797 0.500000
vt 0.841797 0.500000
vt 0.841797 0.500000
vt 0.841797 0.500000
vt 0.841797 0.500000
vt 0.841797 0.500000
vt 0.841797 0.500000
vt 0.841797 0.500000
vt 0.841797 0.500000
vt 0.841797 0.500000
vt 0.841797 0.500000
vt 0.841797 0.500000
vt 0.810547 0.500000
vt 0.810547 0.500000
vt 0.810547 0.500000
vt 0.810547 0.500000
vt 0.810547 0.500000
vt 0.810547 0.500000
vt 0.810547 0.500000
vt 0.810547 0.500000
vt 0.810547 0.500000
vt 0.810547 0.500000
vt 0.810547 0.500000
vt 0.810547 0.500000
vt 0.810547 0.500000
vt 0.810547 0.500000
vt 0.810547 0.500000
vt 0.810547 0.500000
vt 0.810547 0.500000
vt 0.810547 0.500000
vt 0.810547 0.500000
vt 0.810547 0.500000
vt 0.841797 0.500000
vt 0.841797 0.500000
vt 0.841797 0.500000
vt 0.841797 0.500000
vt 0.810547 0.500000
vt 0.810547 0.500000
vt 0.810547 0.500000
vt 0.810547 0.500000
vt 0.810547 0.500000
vt 0.810547 0.500000
vt 0.810547 0.500000
vt 0.810547 0.500000
vt 0.810547 0.500000
vt 0.810547 0.500000
vt 0.810547 0.500000
vt 0.810547 0.500000
vt 0.810547 0.500000
vt 0.810547 0.500000
vt 0.810547 0.500000
vt 0.810547 0.500000
vt 0.810547 0.500000
vt 0.810547 0.500000
vt 0.810547 0.500000
vt 0.810547 0.500000
vt 0.810547 0.500000
vt 0.810547 0.500000
vt 0.810547 0.500000
vt 0.810547 0.500000
vt 0.810547 0.500000
vt 0.810547 0.500000
vt 0.810547 0.500000
vt 0.810547 0.500000
vt 0.810547 0.500000
vt 0.810547 0.500000
vt 0.810547 0.500000
vt 0.810547 0.500000
vt 0.810547 0.500000
vt 0.810547 0.500000
vt 0.810547 0.500000
vt 0.810547 0.500000
vt 0.810547 0.500000
vt 0.810547 0.500000
vt 0.810547 0.500000
vt 0.810547 0.500000
vt 0.810547 0.500000
vt 0.810547 0.500000
vt 0.810547 0.500000
vt 0.810547 0.500000
vt 0.810547 0.500000
vt 0.810547 0.500000
vt 0.810547 0.500000
vt 0.810547 0.500000
vt 0.841797 0.500000
vt 0.841797 0.500000
vt 0.841797 0.500000
vt 0.841797 0.500000
vt 0.841797 0.500000
vt 0.841797 0.500000
vt 0.841797 0.500000
vt 0.841797 0.500000
vt 0.810547 0.500000
vt 0.810547 0.500000
vt 0.810547 0.500000
vt 0.810547 0.500000
vt 0.810547 0.500000
vt 0.810547 0.500000
vt 0.810547 0.500000
vt 0.810547 0.500000
vt 0.810547 0.500000
vt 0.810547 0.500000
vt 0.810547 0.500000
vt 0.810547 0.500000
vt 0.810547 0.500000
vt 0.810547 0.500000
vt 0.810547 0.500000
vt 0.810547 0.500000
vt 0.810547 0.500000
vt 0.810547 0.500000
vt 0.810547 0.500000
vt 0.810547 0.500000
vt 0.841797 0.500000
vt 0.841797 0.500000
vt 0.841797 0.500000
vt 0.841797 0.500000
vt 0.810547 0.500000
vt 0.810547 0.500000
vt 0.810547 0.500000
vt 0.810547 0.500000
vt 0.810547 0.500000
vt 0.810547 0.500000
vt 0.810547 0.500000
vt 0.810547 0.500000
vt 0.810547 0.500000
vt 0.810547 0.500000
vt 0.810547 0.500000
vt 0.810547 0.500000
vt 0.810547 0.500000
vt 0.810547 0.500000
vt 0.810547 0.500000
vt 0.810547 0.500000
vt 0.810547 0.500000
vt 0.810547 0.500000
vt 0.810547 0.500000
vt 0.810547 0.500000
vt 0.810547 0.500000
vt 0.810547 0.500000
vt 0.810547 0.500000
vt 0.810547 0.500000
vt 0.810547 0.500000
vt 0.810547 0.500000
vt 0.810547 0.500000
vt 0.810547 0.500000
vt 0.810547 0.500000
vt 0.810547 0.500000
vt 0.810547 0.500000
vt 0.810547 0.500000
vt 0.841797 0.500000
vt 0.841797 0.500000
vt 0.841797 0.500000
vt 0.810547 0.500000
vt 0.841797 0.500000
vt 0.810547 0.500000
vt 0.810547 0.500000
vt 0.810547 0.500000
vt 0.810547 0.500000
vt 0.810547 0.500000
vt 0.810547 0.500000
vt 0.810547 0.500000
vt 0.810547 0.500000
vt 0.810547 0.500000
vt 0.810547 0.500000
vt 0.810547 0.500000
vt 0.904297 0.500000
vt 0.904297 0.500000
vt 0.904297 0.500000
vt 0.904297 0.500000
vt 0.810547 0.500000
vt 0.810547 0.500000
vt 0.810547 0.500000
vt 0.810547 0.500000
vt 0.810547 0.500000
vt 0.810547 0.500000
vt 0.810547 0.500000
vt 0.810547 0.500000
vt 0.810547 0.500000
vt 0.810547 0.500000
vt 0.810547 0.500000
vt 0.810547 0.500000
vt 0.810547 0.500000
vt 0.810547 0.500000
vt 0.841797 0.500000
vt 0.841797 0.500000
vt 0.841797 0.500000
vt 0.841797 0.500000
vt 0.841797 0.500000
vt 0.841797 0.500000
vt 0.841797 0.500000
vt 0.841797 0.500000
vt 0.841797 0.500000
vt 0.841797 0.500000
vt 0.841797 0.500000
vt 0.841797 0.500000
vt 0.841797 0.500000
vt 0.841797 0.500000
vt 0.841797 0.500000
vt 0.841797 0.500000
vt 0.841797 0.500000
vt 0.841797 0.500000
vt 0.841797 0.500000
vt 0.841797 0.500000
vt 0.841797 0.500000
vt 0.841797 0.500000
vt 0.841797 0.500000
vt 0.841797 0.500000
vt 0.841797 0.500000
vt 0.841797 0.500000
vt 0.841797 0.500000
vt 0.841797 0.500000
vt 0.810547 0.500000
vt 0.810547 0.500000
vt 0.810547 0.500000
vt 0.810547 0.500000
vt 0.810547 0.500000
vt 0.810547 0.500000
vt 0.810547 0.500000
vt 0.810547 0.500000
vt 0.810547 0.500000
vt 0.810547 0.500000
vt 0.810547 0.500000
vt 0.810547 0.500000
vt 0.810547 0.500000
vt 0.810547 0.500000
vt 0.810547 0.500000
vt 0.810547 0.500000
vt 0.810547 0.500000
vt 0.810547 0.500000
vt 0.810547 0.500000
vt 0.810547 0.500000
vt 0.810547 0.500000
vt 0.810547 0.500000
vt 0.810547 0.500000
vt 0.810547 0.500000
vt 0.810547 0.500000
vt 0.810547 0.500000
vt 0.810547 0.500000
vt 0.810547 0.500000
vt 0.810547 0.500000
vt 0.810547 0.500000
vt 0.810547 0.500000
vt 0.810547 0.500000
vt 0.810547 0.500000
vt 0.810547 0.500000
vt 0.810547 0.500000
vt 0.810547 0.500000
vt 0.810547 0.500000
vt 0.810547 0.500000
vt 0.810547 0.500000
vt 0.810547 0.500000
vt 0.810547 0.500000
vt 0.810547 0.500000
vt 0.810547 0.500000
vt 0.810547 0.500000
vt 0.810547 0.500000
vt 0.810547 0.500000
vt 0.810547 0.500000
vt 0.810547 0.500000
vt 0.904297 0.500000
vt 0.904297 0.500000
vt 0.904297 0.500000
vt 0.904297 0.500000
vt 0.810547 0.500000
vt 0.810547 0.500000
vt 0.810547 0.500000
vt 0.810547 0.500000
vt 0.810547 0.500000
vt 0.810547 0.500000
vt 0.810547 0.500000
vt 0.810547 0.500000
vt 0.810547 0.500000
vt 0.810547 0.500000
vt 0.810547 0.500000
vt 0.810547 0.500000
vt 0.810547 0.500000
vt 0.810547 0.500000
vt 0.810547 0.500000
vt 0.810547 0.500000
vt 0.810547 0.500000
vt 0.810547 0.500000
vt 0.810547 0.500000
vt 0.810547 0.500000
vt 0.810547 0.500000
vt 0.810547 0.500000
vt 0.810547 0.500000
vt 0.810547 0.500000
vt 0.810547 0.500000
vt 0.810547 0.500000
vt 0.810547 0.500000
vt 0.810547 0.500000
vt 0.810547 0.500000
vt 0.810547 0.500000
vt 0.810547 0.500000
vt 0.810547 0.500000
vt 0.810547 0.500000
vt 0.810547 0.500000
vt 0.810547 0.500000
vt 0.810547 0.500000
vt 0.810547 0.500000
vt 0.810547 0.500000
vt 0.810547 0.500000
vt 0.810547 0.500000
vt 0.810547 0.500000
vt 0.810547 0.500000
vt 0.810547 0.500000
vt 0.810547 0.500000
vt 0.810547 0.500000
vt 0.810547 0.500000
vt 0.810547 0.500000
vt 0.810547 0.500000
vt 0.810547 0.500000
vt 0.810547 0.500000
vt 0.810547 0.500000
vt 0.810547 0.500000
vt 0.810547 0.500000
vt 0.810547 0.500000
vt 0.810547 0.500000
vt 0.810547 0.500000
vt 0.841797 0.500000
vt 0.841797 0.500000
vt 0.841797 0.500000
vt 0.841797 0.500000
vt 0.841797 0.500000
vt 0.841797 0.500000
vt 0.841797 0.500000
vt 0.841797 0.500000
vt 0.841797 0.500000
vt 0.841797 0.500000
vt 0.841797 0.500000
vt 0.841797 0.500000
vt 0.841797 0.500000
vt 0.841797 0.500000
vt 0.841797 0.500000
vt 0.841797 0.500000
vn -1.0000 -0.0000 0.0000
vn 1.0000 0.0000 0.0000
vn -0.0000 -0.0000 1.0000
vn 0.0000 0.0000 -1.0000
vn 0.0000 -1.0000 0.0000
vn 0.0000 1.0000 0.0000
usemtl palette.005
s 1
f 1/1/1 2/2/1 3/3/1
f 4/4/1 2/2/1 1/1/1
f 5/5/1 6/6/1 7/7/1
f 8/8/1 6/6/1 5/5/1
f 9/9/1 10/10/1 11/11/1
f 12/12/1 10/10/1 9/9/1
f 13/13/1 14/14/1 15/15/1
f 16/16/1 14/14/1 13/13/1
f 17/17/1 18/18/1 19/19/1
f 20/20/1 18/18/1 17/17/1
f 21/21/1 22/22/1 23/23/1
f 24/24/1 22/22/1 21/21/1
f 25/25/1 26/26/1 27/27/1
f 28/28/1 26/26/1 25/25/1
f 29/29/1 30/30/1 31/31/1
f 32/32/1 30/30/1 29/29/1
f 33/33/1 34/34/1 35/35/1
f 36/36/1 34/34/1 33/33/1
f 37/37/1 38/38/1 39/39/1
f 40/40/1 38/38/1 37/37/1
f 41/41/1 42/42/1 43/43/1
f 44/44/1 42/42/1 41/41/1
f 45/45/1 46/46/1 47/47/1
f 48/48/1 46/46/1 45/45/1
f 49/49/1 50/50/1 51/51/1
f 52/52/1 50/50/1 49/49/1
f 53/53/1 54/54/1 55/55/1
f 56/56/1 54/54/1 53/53/1
f 57/57/1 58/58/1 59/59/1
f 60/60/1 58/58/1 57/57/1
f 61/61/1 62/62/1 63/63/1
f 64/64/1 62/62/1 61/61/1
f 65/65/2 66/66/2 67/67/2
f 67/67/2 66/66/2 68/68/2
f 69/69/2 70/70/2 71/71/2
f 71/71/2 70/70/2 72/72/2
f 73/73/2 74/74/2 75/75/2
f 75/75/2 74/74/2 76/76/2
f 77/77/2 78/78/2 79/79/2
f 79/79/2 78/78/2 80/80/2
f 81/81/2 82/82/2 83/83/2
f 83/83/2 82/82/2 84/84/2
f 85/85/2 86/86/2 87/87/2
f 87/87/2 86/86/2 88/88/2
f 89/89/2 90/90/2 91/91/2
f 91/91/2 90/90/2 92/92/2
f 93/93/2 94/94/2 95/95/2
f 95/95/2 94/94/2 96/96/2
f 97/97/2 98/98/2 99/99/2
f 99/99/2 98/98/2 100/100/2
f 101/101/2 102/102/2 103/103/2
f 103/103/2 102/102/2 104/104/2
f 105/105/2 106/106/2 107/107/2
f 107/107/2 106/106/2 108/108/2
f 109/109/2 110/110/2 111/111/2
f 111/111/2 110/110/2 112/112/2
f 113/113/2 114/114/2 115/115/2
f 115/115/2 114/114/2 116/116/2
f 117/117/2 118/118/2 119/119/2
f 119/119/2 118/118/2 120/120/2
f 121/121/2 122/122/2 123/123/2
f 123/123/2 122/122/2 124/124/2
f 125/125/3 126/126/3 127/127/3
f 128/128/3 126/126/3 125/125/3
f 129/129/3 126/126/3 128/128/3
f 130/130/3 126/126/3 129/129/3
f 131/131/3 126/126/3 130/130/3
f 132/132/3 126/126/3 131/131/3
f 133/133/3 126/126/3 132/132/3
f 134/134/3 126/126/3 133/133/3
f 135/135/3 126/126/3 134/134/3
f 136/136/3 126/126/3 135/135/3
f 137/137/3 125/125/3 127/127/3
f 138/138/3 125/125/3 137/137/3
f 139/139/3 125/125/3 138/138/3
f 140/140/3 125/125/3 139/139/3
f 141/141/3 129/129/3 128/128/3
f 142/142/3 129/129/3 141/141/3
f 143/143/3 131/131/3 130/130/3
f 144/144/3 131/131/3 143/143/3
f 145/145/3 133/133/3 132/132/3
f 146/146/3 133/133/3 145/145/3
f 147/147/3 135/135/3 134/134/3
f 148/148/3 135/135/3 147/147/3
f 149/149/3 126/126/3 136/136/3
f 150/150/3 148/148/3 147/147/3
f 150/150/3 149/149/3 148/148/3
f 150/150/3 146/146/3 145/145/3
f 150/150/3 140/140/3 139/139/3
f 150/150/3 147/147/3 146/146/3
f 150/150/3 144/144/3 143/143/3
f 150/150/3 145/145/3 144/144/3
f 150/150/3 142/142/3 141/141/3
f 150/150/3 143/143/3 142/142/3
f 150/150/3 141/141/3 140/140/3
f 151/151/3 126/126/3 149/149/3
f 151/151/3 149/149/3 150/150/3
f 152/152/3 150/150/3 139/139/3
f 152/153/3 151/154/3 150/155/3
f 153/156/3 126/126/3 151/151/3
f 153/157/3 151/154/3 152/153/3
f 154/158/3 152/152/3 139/139/3
f 154/158/3 153/156/3 152/152/3
f 155/159/3 153/156/3 154/158/3
f 156/160/3 153/156/3 155/159/3
f 157/161/3 153/156/3 156/160/3
f 158/162/3 153/156/3 157/161/3
f 159/163/3 153/156/3 158/162/3
f 160/164/3 153/156/3 159/163/3
f 161/165/3 153/156/3 160/164/3
f 162/166/3 153/156/3 161/165/3
f 163/167/3 153/156/3 162/166/3
f 164/168/3 137/137/3 127/127/3
f 164/169/3 138/170/3 137/171/3
f 165/172/3 138/170/3 164/169/3
f 166/173/3 154/158/3 139/139/3
f 167/174/3 165/175/3 164/168/3
f 167/174/3 166/173/3 165/175/3
f 167/174/3 154/158/3 166/173/3
f 168/176/3 156/160/3 155/159/3
f 169/177/3 156/160/3 168/176/3
f 170/178/3 158/162/3 157/161/3
f 171/179/3 158/162/3 170/178/3
f 172/180/3 160/164/3 159/163/3
f 173/181/3 160/164/3 172/180/3
f 174/182/3 162/166/3 161/165/3
f 175/183/3 162/166/3 174/182/3
f 176/184/3 153/156/3 163/167/3
f 177/185/3 175/183/3 174/182/3
f 177/185/3 176/184/3 175/183/3
f 177/185/3 173/181/3 172/180/3
f 177/185/3 171/179/3 170/178/3
f 177/185/3 174/182/3 173/181/3
f 177/185/3 167/174/3 164/168/3
f 177/185/3 172/180/3 171/179/3
f 177/185/3 169/177/3 168/176/3
f 177/185/3 170/178/3 169/177/3
f 177/185/3 164/168/3 127/127/3
f 177/185/3 168/176/3 167/174/3
f 178/186/3 126/126/3 153/156/3
f 178/186/3 176/184/3 177/185/3
f 178/186/3 153/156/3 176/184/3
f 179/187/3 180/188/3 181/189/3
f 182/190/3 180/188/3 179/187/3
f 183/191/3 184/192/3 185/193/3
f 186/194/3 184/192/3 183/191/3
f 187/195/3 188/196/3 189/197/3
f 190/198/3 187/195/3 189/197/3
f 190/198/3 191/199/3 187/195/3
f 192/200/3 191/199/3 190/198/3
f 193/201/4 194/202/4 195/203/4
f 195/203/4 194/202/4 196/204/4
f 197/205/4 198/206/4 199/207/4
f 199/207/4 198/206/4 200/208/4
f 201/209/4 202/210/4 203/211/4
f 201/209/4 203/211/4 204/212/4
f 203/211/4 205/213/4 204/212/4
f 204/212/4 205/213/4 206/214/4
f 207/215/4 208/216/4 209/217/4
f 209/217/4 208/216/4 210/218/4
f 211/219/5 212/220/5 213/221/5
f 214/222/5 212/220/5 211/219/5
f 215/223/5 216/224/5 217/225/5
f 218/226/5 216/224/5 215/223/5
f 219/227/5 220/228/5 221/229/5
f 222/230/5 220/228/5 219/227/5
f 223/231/5 224/232/5 225/233/5
f 226/234/5 224/232/5 223/231/5
f 227/235/5 228/236/5 229/237/5
f 230/238/5 228/236/5 227/235/5
f 231/239/5 232/240/5 233/241/5
f 234/242/5 232/240/5 231/239/5
f 235/243/5 236/244/5 237/245/5
f 238/246/5 236/244/5 235/243/5
f 239/247/5 240/248/5 241/249/5
f 242/250/5 240/248/5 239/247/5
f 243/251/5 244/252/5 245/253/5
f 246/254/5 244/252/5 243/251/5
f 247/255/5 248/256/5 249/257/5
f 250/258/5 248/256/5 247/255/5
f 251/259/5 252/260/5 253/261/5
f 254/262/5 252/260/5 251/259/5
f 255/263/6 256/264/6 257/265/6
f 257/265/6 256/264/6 258/266/6
f 259/267/6 260/268/6 261/269/6
f 261/269/6 260/268/6 262/270/6
f 263/271/6 264/272/6 265/273/6
f 265/273/6 264/272/6 266/274/6
f 267/275/6 268/276/6 269/277/6
f 269/277/6 268/276/6 270/278/6
f 271/279/6 272/280/6 273/281/6
f 273/281/6 272/280/6 274/282/6
f 275/283/6 276/284/6 277/285/6
f 277/285/6 276/284/6 278/286/6
f 279/287/6 280/288/6 281/289/6
f 281/289/6 280/288/6 282/290/6
f 283/291/6 284/292/6 285/293/6
f 285/293/6 284/292/6 286/294/6
f 287/295/6 288/296/6 289/297/6
f 289/297/6 288/296/6 290/298/6
f 291/299/6 292/300/6 293/301/6
f 293/301/6 292/300/6 294/302/6
f 295/303/6 296/304/6 297/305/6
f 297/305/6 296/304/6 298/306/6
f 299/307/6 300/308/6 301/309/6
f 301/309/6 300/308/6 302/310/6
f 299/307/6 301/309/6 303/311/6
f 302/310/6 300/308/6 304/312/6
f 299/307/6 303/311/6 305/313/6
f 303/311/6 304/312/6 305/313/6
f 304/312/6 300/308/6 306/314/6
f 305/313/6 304/312/6 306/314/6
f 299/307/6 305/313/6 307/315/6
f 306/314/6 300/308/6 308/316/6
f 299/307/6 307/315/6 309/317/6
f 307/315/6 308/316/6 309/317/6
f 308/316/6 300/308/6 310/318/6
f 309/317/6 308/316/6 310/318/6
f 299/307/6 309/317/6 311/319/6
f 310/318/6 300/308/6 312/320/6
f 299/307/6 311/319/6 313/321/6
f 311/319/6 312/320/6 313/321/6
f 312/320/6 300/308/6 314/322/6
f 313/321/6 312/320/6 314/322/6
f 315/323/6 316/324/6 317/325/6
f 317/325/6 316/324/6 318/326/6
f 319/327/6 320/328/6 321/329/6
f 321/329/6 320/328/6 322/330/6
f 323/331/6 324/332/6 325/333/6
f 325/333/6 324/332/6 326/334/6
f 327/335/6 328/336/6 329/337/6
f 329/337/6 328/336/6 330/338/6
