# Blender v2.92.0 OBJ File: ''
# www.blender.org
mtllib pavementCorner(3)1-5.mtl
o pavementCorner(3)1-5
v 0.500000 2.000000 2.500000
v 2.500000 2.000000 2.500000
v 0.500000 2.000000 1.500000
v -0.500000 2.000000 1.500000
v -0.500000 2.000000 0.500000
v -1.500000 2.000000 0.500000
v -1.500000 2.000000 -0.500000
v -2.500000 2.000000 -0.500000
v -2.500000 2.000000 -2.500000
v 2.500000 2.000000 -2.500000
vt 0.935547 0.500000
vt 0.935547 0.500000
vt 0.935547 0.500000
vt 0.935547 0.500000
vt 0.935547 0.500000
vt 0.935547 0.500000
vt 0.935547 0.500000
vt 0.935547 0.500000
vt 0.935547 0.500000
vt 0.935547 0.500000
vn 0.0000 1.0000 0.0000
usemtl palette.007
s 1
f 1/1/1 2/2/1 3/3/1
f 4/4/1 3/3/1 5/5/1
f 6/6/1 5/5/1 7/7/1
f 8/8/1 7/7/1 9/9/1
f 3/3/1 2/2/1 10/10/1
f 9/9/1 7/7/1 10/10/1
f 5/5/1 3/3/1 10/10/1
f 7/7/1 5/5/1 10/10/1
