# Blender v2.92.0 OBJ File: ''
# www.blender.org
mtllib pavementCornerCircle(3)1-10.mtl
o pavementCornerCircle(3)1-10
v -1.000000 1.999999 5.000000
v 5.000000 1.999999 5.000000
v -1.000000 2.000000 3.000000
v -2.000000 2.000000 3.000000
v -2.000000 2.000000 2.000000
v -3.000000 2.000000 2.000000
v -3.000000 2.000000 1.000000
v -5.000000 2.000000 1.000000
v -5.000000 2.000001 -5.000000
v 5.000000 2.000001 -5.000000
vt 0.935547 0.500000
vt 0.935547 0.500000
vt 0.935547 0.500000
vt 0.935547 0.500000
vt 0.935547 0.500000
vt 0.935547 0.500000
vt 0.935547 0.500000
vt 0.935547 0.500000
vt 0.935547 0.500000
vt 0.935547 0.500000
vn 0.0000 1.0000 0.0000
usemtl palette.008
s 1
f 1/1/1 2/2/1 3/3/1
f 4/4/1 3/3/1 5/5/1
f 6/6/1 5/5/1 7/7/1
f 8/8/1 7/7/1 9/9/1
f 3/3/1 2/2/1 10/10/1
f 9/9/1 7/7/1 10/10/1
f 5/5/1 3/3/1 10/10/1
f 7/7/1 5/5/1 10/10/1
