# Blender v2.92.0 OBJ File: ''
# www.blender.org
mtllib pavement1-3.mtl
o pavement1-3
v 1.500000 -0.000000 1.500000
v 1.500000 0.000000 -1.500000
v 1.500000 2.000000 1.500000
v 1.500000 2.000000 -1.500000
v 1.500000 2.000000 1.500000
v -1.500000 0.000000 -1.500000
v -1.500000 2.000000 -1.500000
v 1.500000 0.000000 -1.500000
v 1.500000 2.000000 -1.500000
v 1.500000 0.000000 -1.500000
v -1.500000 2.000000 1.500000
v 1.500000 2.000000 1.500000
v -1.500000 2.000000 -1.500000
v 1.500000 2.000000 -1.500000
vt 0.935547 0.500000
vt 0.935547 0.500000
vt 0.935547 0.500000
vt 0.935547 0.500000
vn 0.0000 1.0000 0.0000
usemtl palette.002
s 1
f 11/1/1 12/2/1 13/3/1
f 13/3/1 12/2/1 14/4/1
