# Blender v2.92.0 OBJ File: ''
# www.blender.org
mtllib window1_2x2.mtl
o window1_2x2
v -0.125000 1.875000 0.125000
v -0.125000 0.125000 0.000000
v -0.125000 0.125000 0.125000
v -0.125000 1.875000 0.000000
v 0.875000 1.875000 0.125000
v 0.875000 0.125000 0.000000
v 0.875000 0.125000 0.125000
v 0.875000 1.875000 0.000000
v -0.875000 0.125000 0.125000
v -0.875000 0.125000 0.000000
v -0.875000 1.875000 0.125000
v -0.875000 1.875000 0.000000
v 0.125000 0.125000 0.125000
v 0.125000 0.125000 0.000000
v 0.125000 1.875000 0.125000
v 0.125000 1.875000 0.000000
v -0.875000 0.125000 0.125000
v -1.000000 2.000000 0.125000
v -1.000000 -0.000000 0.125000
v -0.875000 1.875000 0.125000
v -0.125000 0.125000 0.125000
v -0.125000 1.875000 0.125000
v 0.125000 0.125000 0.125000
v 0.125000 1.875000 0.125000
v 0.875000 0.125000 0.125000
v 0.875000 1.875000 0.125000
v 1.000000 -0.000000 0.125000
v 1.000000 2.000000 0.125000
v -0.125000 0.125000 0.000000
v -0.875000 1.875000 0.000000
v -0.875000 0.125000 0.000000
v -0.125000 1.875000 0.000000
v 0.875000 0.125000 0.000000
v 0.125000 1.875000 0.000000
v 0.125000 0.125000 0.000000
v 0.875000 1.875000 0.000000
v -0.875000 1.875000 0.000000
v -0.125000 1.875000 0.125000
v -0.875000 1.875000 0.125000
v -0.125000 1.875000 0.000000
v 0.125000 1.875000 0.000000
v 0.875000 1.875000 0.125000
v 0.125000 1.875000 0.125000
v 0.875000 1.875000 0.000000
v -0.875000 0.125000 0.125000
v -0.125000 0.125000 0.125000
v -0.875000 0.125000 0.000000
v -0.125000 0.125000 0.000000
v 0.125000 0.125000 0.125000
v 0.875000 0.125000 0.125000
v 0.125000 0.125000 0.000000
v 0.875000 0.125000 0.000000
vt 0.716797 0.500000
vt 0.716797 0.500000
vt 0.716797 0.500000
vt 0.716797 0.500000
vt 0.716797 0.500000
vt 0.716797 0.500000
vt 0.716797 0.500000
vt 0.716797 0.500000
vt 0.716797 0.500000
vt 0.716797 0.500000
vt 0.716797 0.500000
vt 0.716797 0.500000
vt 0.716797 0.500000
vt 0.716797 0.500000
vt 0.716797 0.500000
vt 0.716797 0.500000
vt 0.716797 0.500000
vt 0.716797 0.500000
vt 0.716797 0.500000
vt 0.716797 0.500000
vt 0.716797 0.500000
vt 0.716797 0.500000
vt 0.716797 0.500000
vt 0.716797 0.500000
vt 0.716797 0.500000
vt 0.716797 0.500000
vt 0.716797 0.500000
vt 0.716797 0.500000
vt 0.970703 0.500000
vt 0.970703 0.500000
vt 0.970703 0.500000
vt 0.970703 0.500000
vt 0.970703 0.500000
vt 0.970703 0.500000
vt 0.970703 0.500000
vt 0.970703 0.500000
vt 0.716797 0.500000
vt 0.716797 0.500000
vt 0.716797 0.500000
vt 0.716797 0.500000
vt 0.716797 0.500000
vt 0.716797 0.500000
vt 0.716797 0.500000
vt 0.716797 0.500000
vt 0.716797 0.500000
vt 0.716797 0.500000
vt 0.716797 0.500000
vt 0.716797 0.500000
vt 0.716797 0.500000
vt 0.716797 0.500000
vt 0.716797 0.500000
vt 0.716797 0.500000
vn -1.0000 0.0000 0.0000
vn 1.0000 0.0000 0.0000
vn 0.0000 -0.0000 1.0000
vn 0.0000 -1.0000 0.0000
vn 0.0000 1.0000 0.0000
usemtl palette
s 1
f 1/1/1 2/2/1 3/3/1
f 4/4/1 2/2/1 1/1/1
f 5/5/1 6/6/1 7/7/1
f 8/8/1 6/6/1 5/5/1
f 9/9/2 10/10/2 11/11/2
f 11/11/2 10/10/2 12/12/2
f 13/13/2 14/14/2 15/15/2
f 15/15/2 14/14/2 16/16/2
f 17/17/3 18/18/3 19/19/3
f 20/20/3 18/18/3 17/17/3
f 21/21/3 17/17/3 19/19/3
f 22/22/3 18/18/3 20/20/3
f 23/23/3 21/21/3 19/19/3
f 23/23/3 22/22/3 21/21/3
f 24/24/3 18/18/3 22/22/3
f 24/24/3 22/22/3 23/23/3
f 25/25/3 23/23/3 19/19/3
f 26/26/3 18/18/3 24/24/3
f 27/27/3 25/25/3 19/19/3
f 27/27/3 26/26/3 25/25/3
f 28/28/3 18/18/3 26/26/3
f 28/28/3 26/26/3 27/27/3
f 29/29/3 30/30/3 31/31/3
f 32/32/3 30/30/3 29/29/3
f 33/33/3 34/34/3 35/35/3
f 36/36/3 34/34/3 33/33/3
f 37/37/4 38/38/4 39/39/4
f 40/40/4 38/38/4 37/37/4
f 41/41/4 42/42/4 43/43/4
f 44/44/4 42/42/4 41/41/4
f 45/45/5 46/46/5 47/47/5
f 47/47/5 46/46/5 48/48/5
f 49/49/5 50/50/5 51/51/5
f 51/51/5 50/50/5 52/52/5
