# Blender v2.92.0 OBJ File: ''
# www.blender.org
mtllib window2_2x2.mtl
o window2_2x2.001
v -0.875000 0.125000 0.124925
v -1.000000 2.000000 0.124925
v -1.000000 -0.000000 0.124925
v -0.875000 1.875000 0.124925
v 0.875000 0.125000 0.124925
v 0.875000 1.875000 0.124925
v 1.000000 -0.000000 0.124925
v 1.000000 2.000000 0.124925
v -0.875000 0.125000 -0.000313
v -0.875000 1.875000 -0.000312
v 0.875000 1.875000 -0.000312
v 0.875000 0.125000 -0.000313
vt 0.841797 0.500000
vt 0.841797 0.500000
vt 0.841797 0.500000
vt 0.841797 0.500000
vt 0.841797 0.500000
vt 0.841797 0.500000
vt 0.841797 0.500000
vt 0.841797 0.500000
vt 0.841797 0.500000
vt 0.841797 0.500000
vt 0.841797 0.500000
vt 0.970703 0.500000
vt 0.970703 0.500000
vt 0.970703 0.500000
vt 0.970703 0.500000
vt 0.841797 0.500000
vn -0.0000 -0.0000 1.0000
vn -1.0000 0.0000 0.0000
vn 0.0000 -1.0000 0.0000
vn 1.0000 0.0000 0.0000
vn 0.0000 1.0000 0.0000
usemtl palette.008
s off
f 1/1/1 2/2/1 3/3/1
f 4/4/1 2/2/1 1/1/1
f 5/5/1 1/1/1 3/3/1
f 5/5/2 6/6/2 11/7/2 12/8/2
f 6/6/1 2/2/1 4/4/1
f 6/6/3 4/4/3 10/9/3 11/7/3
f 7/10/1 5/5/1 3/3/1
f 7/10/1 6/6/1 5/5/1
f 8/11/1 2/2/1 6/6/1
f 8/11/1 6/6/1 7/10/1
f 12/12/1 10/13/1 9/14/1
f 11/15/1 10/13/1 12/12/1
f 4/4/4 1/1/4 9/16/4 10/9/4
f 1/1/5 5/5/5 12/8/5 9/16/5
