# Blender v2.92.0 OBJ File: ''
# www.blender.org
mtllib window2_2x3.mtl
o window2_2x3.001
v -1.375000 0.125000 0.125995
v -1.500000 2.000000 0.125995
v -1.500000 -0.000000 0.125995
v -1.375000 1.875000 0.125995
v 1.375000 0.125000 0.125995
v 1.375000 1.875000 0.125995
v 1.500000 -0.000000 0.125995
v 1.500000 2.000000 0.125995
v -1.375000 0.125000 0.125995
v -1.375000 1.875000 0.125995
v 1.375000 1.875000 0.125995
v 1.375000 0.125000 0.125995
v -1.375000 0.125000 -0.002887
v -1.375000 1.875000 -0.002887
v 1.375000 1.875000 -0.002887
v 1.375000 0.125000 -0.002887
vt 0.841797 0.500000
vt 0.841797 0.500000
vt 0.841797 0.500000
vt 0.841797 0.500000
vt 0.841797 0.500000
vt 0.841797 0.500000
vt 0.841797 0.500000
vt 0.841797 0.500000
vt 0.841797 0.500000
vt 0.841797 0.500000
vt 0.841797 0.500000
vt 0.841797 0.500000
vt 0.841797 0.500000
vt 0.841797 0.500000
vt 0.841797 0.500000
vt 0.970703 0.500000
vt 0.970703 0.500000
vt 0.970703 0.500000
vt 0.970703 0.500000
vt 0.841797 0.500000
vn 0.0000 -0.0000 1.0000
vn 0.0000 -1.0000 0.0000
vn 1.0000 0.0000 0.0000
vn -1.0000 0.0000 0.0000
vn 0.0000 1.0000 0.0000
usemtl palette.010
s off
f 1/1/1 2/2/1 3/3/1
f 4/4/1 2/2/1 1/1/1
f 5/5/1 1/1/1 3/3/1
f 5/5/1 6/6/1 11/7/1 12/8/1
f 6/6/1 2/2/1 4/4/1
f 6/6/1 4/4/1 10/9/1 11/7/1
f 7/10/1 5/5/1 3/3/1
f 7/10/1 6/6/1 5/5/1
f 8/11/1 2/2/1 6/6/1
f 8/11/1 6/6/1 7/10/1
f 11/7/2 10/9/2 14/12/2 15/13/2
f 10/9/3 9/14/3 13/15/3 14/12/3
f 4/4/1 1/1/1 9/14/1 10/9/1
f 1/1/1 5/5/1 12/8/1 9/14/1
f 16/16/1 14/17/1 13/18/1
f 15/19/1 14/17/1 16/16/1
f 12/8/4 11/7/4 15/13/4 16/20/4
f 9/14/5 12/8/5 16/20/5 13/15/5
