# Blender v2.92.0 OBJ File: ''
# www.blender.org
mtllib door2_4x3.mtl
o door2_4x3
v 0.875000 2.000000 0.187500
v 0.875000 1.875000 0.062500
v 0.875000 1.875000 0.187500
v 0.875000 2.000000 0.062500
v -1.250000 1.000000 0.062500
v -1.250000 1.000000 -0.062500
v -1.250000 3.750000 0.062502
v -1.250000 3.750000 -0.062498
v 1.375000 1.875000 0.187500
v 1.375000 1.875000 0.062500
v 1.375000 2.000000 0.187500
v 1.375000 2.000000 0.062500
v 1.375000 1.875000 0.187500
v 0.875000 2.000000 0.187500
v 0.875000 1.875000 0.187500
v 1.375000 2.000000 0.187500
v -1.250000 1.000000 0.062500
v -1.500000 4.000000 0.062502
v -1.500000 -0.000000 0.062500
v -1.250000 3.750000 0.062502
v 1.250000 1.000000 0.062500
v 1.250000 3.750000 0.062502
v 1.375000 1.875000 0.062500
v 1.375000 2.000000 0.062500
v 1.500000 -0.000000 0.062500
v 1.500000 4.000000 0.062502
v -1.000000 1.250000 -0.062500
v -1.250000 3.750000 -0.062498
v -1.250000 1.000000 -0.062500
v -1.000000 1.625000 -0.062500
v -1.000000 1.875000 -0.062500
v -1.000000 2.250000 -0.062500
v -1.000000 2.500000 -0.062500
v -1.000000 2.875000 -0.062500
v -1.000000 3.125000 -0.062498
v -1.000000 3.500000 -0.062498
v 1.000000 1.250000 -0.062500
v 1.000000 1.625000 -0.062500
v 1.000000 1.875000 -0.062500
v 1.000000 2.250000 -0.062500
v 1.000000 2.500000 -0.062500
v 1.000000 2.875000 -0.062500
v 1.000000 3.125000 -0.062498
v 1.000000 3.500000 -0.062498
v 1.250000 1.000000 -0.062500
v 1.250000 3.750000 -0.062498
v 0.875000 1.875000 0.062500
v 0.875000 2.000000 0.062500
v 1.250000 1.875000 0.062500
v 1.250000 2.000000 0.062500
v 1.500000 -0.000000 0.062500
v 0.875000 1.875000 0.062500
v 1.375000 1.875000 0.187500
v 0.875000 1.875000 0.187500
v 1.375000 1.875000 0.062500
v -1.250000 3.750000 -0.062498
v 1.250000 3.750000 0.062502
v -1.250000 3.750000 0.062502
v 1.250000 3.750000 -0.062498
v -1.250000 1.000000 0.062500
v 1.250000 1.000000 0.062500
v -1.250000 1.000000 -0.062500
v 1.250000 1.000000 -0.062500
v 0.875000 2.000000 0.187500
v 1.375000 2.000000 0.187500
v 0.875000 2.000000 0.062500
v 1.375000 2.000000 0.062500
v 1.500000 4.000000 0.062502
vt 0.500000 0.500000
vt 0.500000 0.500000
vt 0.500000 0.500000
vt 0.500000 0.500000
vt 0.500000 0.500000
vt 0.500000 0.500000
vt 0.500000 0.500000
vt 0.500000 0.500000
vt 0.500000 0.500000
vt 0.500000 0.500000
vt 0.500000 0.500000
vt 0.500000 0.500000
vt 0.500000 0.500000
vt 0.500000 0.500000
vt 0.500000 0.500000
vt 0.500000 0.500000
vt 0.500000 0.500000
vt 0.500000 0.500000
vt 0.500000 0.500000
vt 0.500000 0.500000
vt 0.500000 0.500000
vt 0.500000 0.500000
vt 0.500000 0.500000
vt 0.500000 0.500000
vt 0.500000 0.500000
vt 0.500000 0.500000
vt 0.500000 0.500000
vt 0.500000 0.500000
vt 0.500000 0.500000
vt 0.500000 0.500000
vt 0.500000 0.500000
vt 0.500000 0.500000
vt 0.500000 0.500000
vt 0.500000 0.500000
vt 0.500000 0.500000
vt 0.500000 0.500000
vt 0.500000 0.500000
vt 0.500000 0.500000
vt 0.500000 0.500000
vt 0.970703 0.500000
vt 0.970703 0.500000
vt 0.970703 0.500000
vt 0.500000 0.500000
vt 0.500000 0.500000
vt 0.500000 0.500000
vt 0.970703 0.500000
vt 0.970703 0.500000
vt 0.970703 0.500000
vt 0.970703 0.500000
vt 0.500000 0.500000
vt 0.500000 0.500000
vt 0.500000 0.500000
vt 0.500000 0.500000
vt 0.970703 0.500000
vt 0.970703 0.500000
vt 0.970703 0.500000
vt 0.970703 0.500000
vt 0.500000 0.500000
vt 0.500000 0.500000
vt 0.500000 0.500000
vt 0.500000 0.500000
vt 0.970703 0.500000
vt 0.970703 0.500000
vt 0.970703 0.500000
vt 0.970703 0.500000
vt 0.500000 0.500000
vt 0.500000 0.500000
vt 0.970703 0.500000
vt 0.500000 0.500000
vt 0.500000 0.500000
vt 0.500000 0.500000
vt 0.500000 0.500000
vt 0.500000 0.500000
vt 0.500000 0.500000
vt 0.500000 0.500000
vt 0.500000 0.500000
vt 0.500000 0.500000
vt 0.500000 0.500000
vt 0.500000 0.500000
vt 0.500000 0.500000
vt 0.500000 0.500000
vt 0.500000 0.500000
vt 0.500000 0.500000
vt 0.500000 0.500000
vn 0.0000 -0.0000 1.0000
vn -1.0000 0.0000 0.0000
vn 1.0000 0.0000 0.0000
vn 0.0000 0.0000 -1.0000
vn 0.0000 -1.0000 0.0000
vn 0.0000 1.0000 0.0000
usemtl palette.001
s off
f 68/1/1 57/2/1 61/3/1
f 27/4/1 36/5/1 56/6/1
f 27/4/1 56/6/1 62/7/1
f 68/1/1 61/3/1 51/8/1
f 59/9/1 44/10/1 37/11/1
f 59/9/1 37/11/1 63/12/1
s 1
f 1/13/2 2/14/2 3/15/2
f 4/16/2 2/14/2 1/13/2
f 59/9/2 63/12/2 61/3/2
f 59/9/2 61/3/2 57/2/2
f 5/17/3 6/18/3 7/19/3
f 7/19/3 6/18/3 8/20/3
f 9/21/3 10/22/3 11/23/3
f 11/23/3 10/22/3 12/24/3
f 13/25/1 14/26/1 15/27/1
f 16/28/1 14/26/1 13/25/1
f 17/29/1 18/30/1 19/31/1
f 20/32/1 18/30/1 17/29/1
f 21/33/1 17/29/1 19/31/1
f 22/34/1 18/30/1 20/32/1
f 25/35/1 24/36/1 23/37/1
f 25/35/1 21/33/1 19/31/1
f 26/38/1 18/30/1 22/34/1
f 37/11/1 27/4/1 29/39/1
f 37/40/1 30/41/1 27/42/1
f 38/43/1 31/44/1 30/45/1
f 38/46/1 30/41/1 37/40/1
f 39/47/1 32/48/1 31/49/1
f 39/50/1 31/44/1 38/43/1
f 40/51/1 33/52/1 32/53/1
f 40/54/1 32/48/1 39/47/1
f 41/55/1 34/56/1 33/57/1
f 41/58/1 33/52/1 40/51/1
f 42/59/1 35/60/1 34/61/1
f 42/62/1 34/56/1 41/55/1
f 43/63/1 36/64/1 35/65/1
f 43/66/1 35/60/1 42/59/1
f 44/10/1 28/67/1 36/5/1
f 44/68/1 36/64/1 43/63/1
f 45/69/1 37/11/1 29/39/1
f 46/70/1 28/67/1 44/10/1
f 47/71/4 48/72/4 49/73/4
f 49/73/4 48/72/4 50/74/4
f 53/75/5 54/76/5 52/77/5
f 53/75/5 52/77/5 55/78/5
f 56/6/5 57/2/5 58/79/5
f 59/9/5 57/2/5 56/6/5
f 60/80/6 61/3/6 62/7/6
f 62/7/6 61/3/6 63/12/6
f 67/81/6 66/82/6 64/83/6
f 67/81/6 64/83/6 65/84/6
