# Blender v2.92.0 OBJ File: ''
# www.blender.org
mtllib door2_4x5.mtl
o door2_4x5
v -2.500000 4.000000 0.062502
v -2.500000 0.000000 -0.187500
v -2.500000 -0.000000 0.062500
v -2.500000 4.000000 -0.187498
v -0.625000 2.000000 0.187500
v -0.625000 1.875000 0.062500
v -0.625000 1.875000 0.187500
v -0.625000 2.000000 0.062500
v -0.250000 1.875000 0.062500
v -0.250000 1.000000 -0.062500
v -0.250000 1.000000 0.062500
v -0.250000 2.000000 0.062500
v -0.250000 3.750000 0.062502
v -0.250000 3.750000 -0.062498
v 0.125000 2.000000 0.187500
v 0.125000 1.875000 0.062500
v 0.125000 1.875000 0.187500
v 0.125000 2.000000 0.062500
v 2.250000 3.750000 0.062502
v 2.250000 1.000000 -0.062500
v 2.250000 1.000000 0.062500
v 2.250000 3.750000 -0.062498
v -2.250000 1.000000 0.062500
v -2.250000 1.000000 -0.062500
v -2.250000 3.750000 0.062502
v -2.250000 3.750000 -0.062498
v -0.125000 1.875000 0.187500
v -0.125000 1.875000 0.062500
v -0.125000 2.000000 0.187500
v -0.125000 2.000000 0.062500
v 0.250000 1.000000 0.062500
v 0.250000 1.000000 -0.062500
v 0.250000 1.875000 0.062500
v 0.250000 2.000000 0.062500
v 0.250000 3.750000 0.062502
v 0.250000 3.750000 -0.062498
v 0.625000 1.875000 0.187500
v 0.625000 1.875000 0.062500
v 0.625000 2.000000 0.187500
v 0.625000 2.000000 0.062500
v 2.500000 -0.000000 0.062500
v 2.500000 0.000000 -0.187500
v 2.500000 4.000000 0.062502
v 2.500000 4.000000 -0.187498
v -0.125000 1.875000 0.187500
v -0.625000 2.000000 0.187500
v -0.625000 1.875000 0.187500
v -0.125000 2.000000 0.187500
v 0.625000 1.875000 0.187500
v 0.125000 2.000000 0.187500
v 0.125000 1.875000 0.187500
v 0.625000 2.000000 0.187500
v -2.250000 1.000000 0.062500
v -2.500000 4.000000 0.062502
v -2.500000 -0.000000 0.062500
v -2.250000 3.750000 0.062502
v -0.250000 1.000000 0.062500
v -0.250000 3.750000 0.062502
v -0.125000 1.875000 0.062500
v -0.250000 1.875000 0.062500
v -0.125000 2.000000 0.062500
v -0.250000 2.000000 0.062500
v 0.125000 1.875000 0.062500
v 0.125000 2.000000 0.062500
v 0.250000 1.000000 0.062500
v 0.250000 1.875000 0.062500
v 0.250000 2.000000 0.062500
v 0.250000 3.750000 0.062502
v 2.250000 1.000000 0.062500
v 2.250000 3.750000 0.062502
v 2.500000 -0.000000 0.062500
v 2.500000 4.000000 0.062502
v -2.000000 1.250000 -0.062500
v -2.250000 3.750000 -0.062498
v -2.250000 1.000000 -0.062500
v -2.000000 1.625000 -0.062500
v -2.000000 1.875000 -0.062500
v -2.000000 2.250000 -0.062500
v -2.000000 2.500000 -0.062500
v -2.000000 2.875000 -0.062500
v -2.000000 3.125000 -0.062498
v -2.000000 3.500000 -0.062498
v -0.500000 1.250000 -0.062500
v -0.500000 1.625000 -0.062500
v -0.500000 1.875000 -0.062500
v -0.500000 2.250000 -0.062500
v -0.500000 2.500000 -0.062500
v -0.500000 2.875000 -0.062500
v -0.500000 3.125000 -0.062498
v -0.500000 3.500000 -0.062498
v -0.250000 1.000000 -0.062500
v -0.250000 3.750000 -0.062498
v 0.500000 1.250000 -0.062500
v 0.250000 3.750000 -0.062498
v 0.250000 1.000000 -0.062500
v 0.500000 1.625000 -0.062500
v 0.500000 1.875000 -0.062500
v 0.500000 2.250000 -0.062500
v 0.500000 2.500000 -0.062500
v 0.500000 2.875000 -0.062500
v 0.500000 3.125000 -0.062498
v 0.500000 3.500000 -0.062498
v 2.000000 1.250000 -0.062500
v 2.000000 1.625000 -0.062500
v 2.000000 1.875000 -0.062500
v 2.000000 2.250000 -0.062500
v 2.000000 2.500000 -0.062500
v 2.000000 2.875000 -0.062500
v 2.000000 3.125000 -0.062498
v 2.000000 3.500000 -0.062498
v 2.250000 1.000000 -0.062500
v 2.250000 3.750000 -0.062498
v -0.625000 1.875000 0.062500
v -0.625000 2.000000 0.062500
v -0.250000 1.875000 0.062500
v -0.250000 2.000000 0.062500
v 0.250000 1.875000 0.062500
v 0.250000 2.000000 0.062500
v 0.625000 1.875000 0.062500
v 0.625000 2.000000 0.062500
v -2.500000 0.000000 -0.187500
v -2.500000 4.000000 -0.187498
v -2.000000 1.250000 -0.187500
v -2.000000 1.625000 -0.187500
v -2.000000 1.875000 -0.187500
v -2.000000 2.250000 -0.187500
v -2.000000 2.500000 -0.187500
v -2.000000 2.875000 -0.187500
v -2.000000 3.125000 -0.187498
v -2.000000 3.500000 -0.187498
v -0.500000 1.250000 -0.187500
v -0.500000 1.625000 -0.187500
v -0.500000 1.875000 -0.187500
v -0.500000 2.250000 -0.187500
v -0.500000 2.500000 -0.187500
v -0.500000 2.875000 -0.187500
v -0.500000 3.125000 -0.187498
v -0.500000 3.500000 -0.187498
v 0.500000 1.250000 -0.187500
v 0.500000 1.625000 -0.187500
v 0.500000 1.875000 -0.187500
v 0.500000 2.250000 -0.187500
v 0.500000 2.500000 -0.187500
v 0.500000 2.875000 -0.187500
v 0.500000 3.125000 -0.187498
v 0.500000 3.500000 -0.187498
v 2.000000 1.250000 -0.187500
v 2.000000 1.625000 -0.187500
v 2.000000 1.875000 -0.187500
v 2.000000 2.250000 -0.187500
v 2.000000 2.500000 -0.187500
v 2.000000 2.875000 -0.187500
v 2.000000 3.125000 -0.187498
v 2.000000 3.500000 -0.187498
v 2.500000 0.000000 -0.187500
v 2.500000 4.000000 -0.187498
v -2.500000 0.000000 -0.187500
v 2.500000 -0.000000 0.062500
v -2.500000 -0.000000 0.062500
v 2.500000 0.000000 -0.187500
v -0.625000 1.875000 0.062500
v -0.125000 1.875000 0.187500
v -0.625000 1.875000 0.187500
v -0.250000 1.875000 0.062500
v -0.125000 1.875000 0.062500
v 0.125000 1.875000 0.062500
v 0.625000 1.875000 0.187500
v 0.125000 1.875000 0.187500
v 0.250000 1.875000 0.062500
v 0.625000 1.875000 0.062500
v -2.250000 3.750000 -0.062498
v -0.250000 3.750000 0.062502
v -2.250000 3.750000 0.062502
v -0.250000 3.750000 -0.062498
v 0.250000 3.750000 -0.062498
v 2.250000 3.750000 0.062502
v 0.250000 3.750000 0.062502
v 2.250000 3.750000 -0.062498
v -2.250000 1.000000 0.062500
v -0.250000 1.000000 0.062500
v -2.250000 1.000000 -0.062500
v -0.250000 1.000000 -0.062500
v 0.250000 1.000000 0.062500
v 2.250000 1.000000 0.062500
v 0.250000 1.000000 -0.062500
v 2.250000 1.000000 -0.062500
v -0.625000 2.000000 0.187500
v -0.125000 2.000000 0.187500
v -0.625000 2.000000 0.062500
v -0.250000 2.000000 0.062500
v -0.125000 2.000000 0.062500
v 0.125000 2.000000 0.187500
v 0.625000 2.000000 0.187500
v 0.125000 2.000000 0.062500
v 0.250000 2.000000 0.062500
v 0.625000 2.000000 0.062500
v -2.500000 4.000000 0.062502
v 2.500000 4.000000 0.062502
v -2.500000 4.000000 -0.187498
v 2.500000 4.000000 -0.187498
vt 0.500000 0.500000
vt 0.500000 0.500000
vt 0.500000 0.500000
vt 0.500000 0.500000
vt 0.500000 0.500000
vt 0.500000 0.500000
vt 0.500000 0.500000
vt 0.500000 0.500000
vt 0.500000 0.500000
vt 0.500000 0.500000
vt 0.500000 0.500000
vt 0.970703 0.500000
vt 0.970703 0.500000
vt 0.970703 0.500000
vt 0.970703 0.500000
vt 0.970703 0.500000
vt 0.970703 0.500000
vt 0.970703 0.500000
vt 0.970703 0.500000
vt 0.970703 0.500000
vt 0.970703 0.500000
vt 0.970703 0.500000
vt 0.970703 0.500000
vt 0.970703 0.500000
vt 0.970703 0.500000
vt 0.970703 0.500000
vt 0.970703 0.500000
vt 0.970703 0.500000
vt 0.970703 0.500000
vt 0.970703 0.500000
vt 0.970703 0.500000
vt 0.970703 0.500000
vt 0.970703 0.500000
vt 0.970703 0.500000
vt 0.970703 0.500000
vt 0.500000 0.500000
vt 0.500000 0.500000
vt 0.500000 0.500000
vt 0.500000 0.500000
vt 0.500000 0.500000
vt 0.500000 0.500000
vt 0.500000 0.500000
vt 0.500000 0.500000
vt 0.500000 0.500000
vt 0.500000 0.500000
vt 0.500000 0.500000
vt 0.500000 0.500000
vt 0.500000 0.500000
vt 0.500000 0.500000
vt 0.500000 0.500000
vt 0.500000 0.500000
vt 0.500000 0.500000
vt 0.500000 0.500000
vt 0.500000 0.500000
vt 0.500000 0.500000
vt 0.500000 0.500000
vt 0.500000 0.500000
vt 0.500000 0.500000
vt 0.500000 0.500000
vt 0.500000 0.500000
vt 0.500000 0.500000
vt 0.500000 0.500000
vt 0.500000 0.500000
vt 0.500000 0.500000
vt 0.500000 0.500000
vt 0.500000 0.500000
vt 0.500000 0.500000
vt 0.500000 0.500000
vt 0.500000 0.500000
vt 0.500000 0.500000
vt 0.500000 0.500000
vt 0.500000 0.500000
vt 0.500000 0.500000
vt 0.970703 0.500000
vt 0.970703 0.500000
vt 0.970703 0.500000
vt 0.970703 0.500000
vt 0.970703 0.500000
vt 0.970703 0.500000
vt 0.970703 0.500000
vt 0.970703 0.500000
vt 0.500000 0.500000
vt 0.500000 0.500000
vt 0.500000 0.500000
vt 0.500000 0.500000
vt 0.500000 0.500000
vt 0.500000 0.500000
vt 0.500000 0.500000
vn 0.0000 -0.0000 1.0000
vn 0.0000 -1.0000 0.0000
vn 0.0000 1.0000 0.0000
vn 1.0000 0.0000 0.0000
vn -1.0000 0.0000 0.0000
usemtl palette.005
s off
f 197/1/1 176/2/1 198/3/1
f 197/1/1 179/4/1 173/5/1
f 158/6/1 179/4/1 159/7/1
f 184/8/1 198/3/1 176/2/1
f 172/9/1 183/10/1 177/11/1
f 81/12/1 90/13/1 82/14/1
f 79/15/1 88/16/1 80/17/1
f 77/18/1 86/19/1 78/20/1
f 73/21/1 84/22/1 76/23/1
f 101/24/1 110/25/1 102/26/1
f 99/27/1 108/28/1 100/29/1
f 97/30/1 106/31/1 98/32/1
f 93/33/1 104/34/1 96/35/1
f 171/36/2 176/2/2 173/5/2
f 179/4/3 186/37/3 181/38/3
f 179/4/4 171/36/4 173/5/4
f 184/8/5 178/39/5 186/37/5
f 175/40/4 183/10/4 185/41/4
f 174/42/5 180/43/5 172/9/5
f 171/36/1 110/44/1 178/39/1
f 83/45/1 102/46/1 90/47/1
f 110/44/1 186/37/1 178/39/1
f 103/48/1 181/38/1 186/37/1
f 73/49/1 171/36/1 181/38/1
f 80/50/1 109/51/1 81/52/1
f 78/53/1 107/54/1 79/55/1
f 76/56/1 105/57/1 77/58/1
f 191/59/3 187/60/3 188/61/3
f 163/62/5 189/63/5 161/64/5
f 161/64/2 162/65/2 163/62/2
f 163/62/1 188/61/1 187/60/1
f 162/65/4 191/59/4 188/61/4
f 192/66/5 166/67/5 168/68/5
f 167/69/1 192/66/1 168/68/1
f 170/70/4 193/71/4 167/69/4
f 192/66/3 196/72/3 194/73/3
f 166/67/2 167/69/2 168/68/2
f 197/1/1 173/5/1 176/2/1
f 197/1/1 159/7/1 179/4/1
f 158/6/1 184/8/1 179/4/1
f 184/8/1 158/6/1 198/3/1
f 172/9/1 180/43/1 183/10/1
f 81/12/1 89/74/1 90/13/1
f 79/15/1 87/75/1 88/16/1
f 77/18/1 85/76/1 86/19/1
f 73/21/1 83/77/1 84/22/1
f 101/24/1 109/78/1 110/25/1
f 99/27/1 107/79/1 108/28/1
f 97/30/1 105/80/1 106/31/1
f 93/33/1 103/81/1 104/34/1
f 171/36/2 178/39/2 176/2/2
f 179/4/3 184/8/3 186/37/3
f 179/4/4 181/38/4 171/36/4
f 184/8/5 176/2/5 178/39/5
f 175/40/4 177/11/4 183/10/4
f 174/42/5 182/82/5 180/43/5
f 171/36/1 82/83/1 110/44/1
f 83/45/1 93/84/1 102/46/1
f 110/44/1 103/48/1 186/37/1
f 103/48/1 73/49/1 181/38/1
f 73/49/1 82/83/1 171/36/1
f 80/50/1 108/85/1 109/51/1
f 78/53/1 106/86/1 107/54/1
f 76/56/1 104/87/1 105/57/1
f 191/59/3 189/63/3 187/60/3
f 163/62/5 187/60/5 189/63/5
f 161/64/2 165/88/2 162/65/2
f 163/62/1 162/65/1 188/61/1
f 162/65/4 165/88/4 191/59/4
f 192/66/5 194/73/5 166/67/5
f 167/69/1 193/71/1 192/66/1
f 170/70/4 196/72/4 193/71/4
f 192/66/3 193/71/3 196/72/3
f 166/67/2 170/70/2 167/69/2
