# Blender v2.92.0 OBJ File: ''
# www.blender.org
mtllib door3_4x3.mtl
o door3_4x3.001
v 1.500000 4.000000 0.000003
v -1.500000 4.000000 0.000003
v -1.125000 3.625000 0.000003
v 1.125000 3.625000 0.000003
v -1.500000 0.000000 0.000000
v -1.125000 0.375000 0.000000
v 1.500000 0.000000 0.000000
v 1.125000 0.375000 0.000000
v 1.125000 3.625000 -0.124997
v -1.125000 3.625000 -0.124997
v -1.125000 0.375000 -0.125000
v 1.125000 0.375000 -0.125000
v -0.250000 3.625000 0.000003
v -0.625000 3.625000 0.000003
v -0.625000 0.375000 0.000000
v -0.250000 0.375000 0.000000
v 0.625000 3.625000 0.000003
v 0.250000 3.625000 0.000003
v 0.250000 0.375000 0.000000
v 0.625000 0.375000 0.000000
v -0.250000 1.875000 0.000000
v 0.250000 1.875000 0.000000
v 0.250000 2.250000 0.000000
v -0.250000 2.250000 0.000000
v -0.625000 3.625000 -0.124997
v -0.625000 0.375000 -0.125000
v 0.250000 3.625000 -0.124997
v 0.250000 0.375000 -0.125000
v -0.250000 3.625000 -0.124997
v -0.250000 0.375000 -0.125000
v 0.625000 3.625000 -0.124997
v 0.625000 0.375000 -0.125000
v -0.250000 1.875000 -0.125000
v 0.250000 1.875000 -0.125000
v 0.250000 2.250000 -0.125000
v -0.250000 2.250000 -0.125000
v -1.375000 2.500000 0.125000
v -1.375000 2.625000 0.125000
v -1.375000 2.625000 0.000000
v -1.375000 2.500000 0.000000
v -1.375000 1.500000 0.125000
v -1.375000 1.625000 0.125000
v -1.375000 1.625000 0.000000
v -1.375000 1.500000 0.000000
v -1.375000 1.375000 0.250000
v -1.375000 2.750000 0.250000
v -1.375000 2.750000 0.125000
v -1.375000 1.375000 0.125000
v -1.250000 1.375000 0.250000
v -1.250000 2.750000 0.250000
v -1.250000 2.750000 0.125000
v -1.250000 1.375000 0.125000
v -1.250000 2.500000 0.000000
v -1.250000 2.625000 0.000000
v -1.250000 2.625000 0.125000
v -1.250000 2.500000 0.125000
v -1.250000 1.500000 0.000000
v -1.250000 1.625000 0.000000
v -1.250000 1.625000 0.125000
v -1.250000 1.500000 0.125000
vt 0.500000 0.500000
vt 0.500000 0.500000
vt 0.500000 0.500000
vt 0.500000 0.500000
vt 0.500000 0.500000
vt 0.500000 0.500000
vt 0.500000 0.500000
vt 0.970703 0.500000
vt 0.970703 0.500000
vt 0.970703 0.500000
vt 0.500000 0.500000
vt 0.500000 0.500000
vt 0.500000 0.500000
vt 0.500000 0.500000
vt 0.500000 0.500000
vt 0.500000 0.500000
vt 0.500000 0.500000
vt 0.500000 0.500000
vt 0.500000 0.500000
vt 0.500000 0.500000
vt 0.500000 0.500000
vt 0.500000 0.500000
vt 0.500000 0.500000
vt 0.500000 0.500000
vt 0.500000 0.500000
vt 0.500000 0.500000
vt 0.500000 0.500000
vt 0.500000 0.500000
vt 0.500000 0.500000
vt 0.500000 0.500000
vt 0.500000 0.500000
vt 0.500000 0.500000
vt 0.500000 0.500000
vt 0.500000 0.500000
vt 0.500000 0.500000
vt 0.500000 0.500000
vt 0.500000 0.500000
vt 0.500000 0.500000
vt 0.500000 0.500000
vt 0.500000 0.500000
vt 0.500000 0.500000
vt 0.500000 0.500000
vt 0.500000 0.500000
vt 0.500000 0.500000
vt 0.500000 0.500000
vt 0.500000 0.500000
vt 0.500000 0.500000
vt 0.500000 0.500000
vt 0.500000 0.500000
vt 0.500000 0.500000
vt 0.500000 0.500000
vt 0.500000 0.500000
vt 0.500000 0.500000
vt 0.500000 0.500000
vt 0.500000 0.500000
vt 0.500000 0.500000
vt 0.970703 0.500000
vt 0.500000 0.500000
vt 0.500000 0.500000
vt 0.500000 0.500000
vt 0.500000 0.500000
vt 0.500000 0.500000
vt 0.500000 0.500000
vt 0.500000 0.500000
vn -0.0000 -0.0000 1.0000
vn -1.0000 0.0000 0.0000
vn 0.0000 1.0000 0.0000
vn 1.0000 -0.0000 0.0000
vn 0.0000 -1.0000 0.0000
vn 0.0000 0.0000 -1.0000
usemtl palette.008
s 1
f 2/1/1 4/2/1 1/3/1
f 5/4/1 3/5/1 2/1/1
f 7/6/1 6/7/1 5/4/1
f 4/2/1 7/6/1 1/3/1
f 10/8/1 12/9/1 9/10/1
f 14/11/1 16/12/1 13/13/1
f 18/14/1 20/15/1 17/16/1
f 22/17/1 24/18/1 21/19/1
f 25/20/2 15/21/2 14/11/2
f 27/22/2 19/23/2 18/14/2
f 9/24/2 8/25/2 4/2/2
f 12/26/3 6/7/3 8/25/3
f 6/7/4 10/27/4 3/5/4
f 10/27/5 4/2/5 3/5/5
f 29/28/4 16/12/4 30/29/4
f 31/30/4 20/15/4 32/31/4
f 33/32/5 22/17/5 21/19/5
f 23/33/3 36/34/3 24/18/3
f 38/35/2 40/36/2 37/37/2
f 42/38/2 44/39/2 41/40/2
f 46/41/2 48/42/2 45/43/2
f 49/44/1 46/41/1 45/43/1
f 51/45/3 46/41/3 50/46/3
f 50/46/4 52/47/4 51/45/4
f 54/48/4 56/49/4 53/50/4
f 38/35/3 54/48/3 39/51/3
f 40/36/5 56/49/5 37/37/5
f 58/52/4 60/53/4 57/54/4
f 42/38/3 58/52/3 43/55/3
f 44/39/5 60/53/5 41/40/5
f 48/42/5 49/44/5 45/43/5
f 51/45/6 48/42/6 47/56/6
f 2/1/1 3/5/1 4/2/1
f 5/4/1 6/7/1 3/5/1
f 7/6/1 8/25/1 6/7/1
f 4/2/1 8/25/1 7/6/1
f 10/8/1 11/57/1 12/9/1
f 14/11/1 15/21/1 16/12/1
f 18/14/1 19/23/1 20/15/1
f 22/17/1 23/33/1 24/18/1
f 25/20/2 26/58/2 15/21/2
f 27/22/2 28/59/2 19/23/2
f 9/24/2 12/26/2 8/25/2
f 12/26/3 11/60/3 6/7/3
f 6/7/4 11/60/4 10/27/4
f 10/27/5 9/24/5 4/2/5
f 29/28/4 13/13/4 16/12/4
f 31/30/4 17/16/4 20/15/4
f 33/32/5 34/61/5 22/17/5
f 23/33/3 35/62/3 36/34/3
f 38/35/2 39/51/2 40/36/2
f 42/38/2 43/55/2 44/39/2
f 46/41/2 47/56/2 48/42/2
f 49/44/1 50/46/1 46/41/1
f 51/45/3 47/56/3 46/41/3
f 50/46/4 49/44/4 52/47/4
f 54/48/4 55/63/4 56/49/4
f 38/35/3 55/63/3 54/48/3
f 40/36/5 53/50/5 56/49/5
f 58/52/4 59/64/4 60/53/4
f 42/38/3 59/64/3 58/52/3
f 44/39/5 57/54/5 60/53/5
f 48/42/5 52/47/5 49/44/5
f 51/45/6 52/47/6 48/42/6
